# xmcd
#
# Track frame offsets: 
#        150
#        40024
#        64205
#        90774
#        124986
#        140996
#        171262
#        204498
#        241309
#        266568
#        281284
#        302004
#        324266
#
# Disc length: 4646 seconds
#
# Revision: 2
# Processed by: cddbd v1.5.2PL0 Copyright (c) Steve Scherf et al.
# Submitted via: ExactAudioCopyFreeDBPlugin 1.0
#
DISCID=b512240d
DTITLE=Bill Evans - Sunday in Spring
DYEAR=2009
DGENRE=Jazz
TTITLE0=Miles Davis Sextet - Straight No Chaser
TTITLE1=Bill Evans Trio - Minority
TTITLE2=Bill Evans Trio - Young And Foolish
TTITLE3=Bill Evans Trio - Night And Day
TTITLE4=Bill Evans Trio - Tenderly
TTITLE5=Peace Piece
TTITLE6=Bill Evans Trio - You And The Night And The Music
TTITLE7=Bill Evans Trio - On Green Dolphin Street
TTITLE8=Miles Davis Sextet - Blue In Green
TTITLE9=Bill Evans Trio - Peri's Scope
TTITLE10=Bill Evans Trio - Witchcraft
TTITLE11=Bill Evans Trio - Someday My Prince Will Come
TTITLE12=Bill Evans Trio - Autumn Leaves
EXTD=
EXTT0=
EXTT1=
EXTT2=
EXTT3=
EXTT4=
EXTT5=
EXTT6=
EXTT7=
EXTT8=
EXTT9=
EXTT10=
EXTT11=
EXTT12=
PLAYORDER=
